<svg id="Capa_1" enable-background="new 0 0 512.642 512.642" height="512" viewBox="0 0 512.642 512.642" width="512" xmlns="http://www.w3.org/2000/svg"><g><g><g id="XMLID_194_"><g><g><path d="m348.483 423.604c23.44 0 42.26 19.79 40.67 43.57-1.32 19.74-16.99 35.89-36.68 37.78-7.3.7-14.23-.55-20.38-3.25h-151.54c-5.01 2.2-10.55 3.44-16.39 3.44-23.48 0-42.33-19.86-40.66-43.7 1.43-20.4 18.16-36.77 38.57-37.79 10.46-.52 20.11 2.91 27.6 8.92 1.62 1.3 4.03.78 4.91-1.11 4.41-9.4 13.95-15.92 25.03-15.92 3.99 0 7.78.85 11.2 2.37 2.14.95 4.54-.55 4.54-2.89v-80.55h41.94v80.55c0 2.34 2.4 3.84 4.54 2.89 3.42-1.52 7.21-2.37 11.2-2.37 11.08 0 20.62 6.52 25.03 15.92.88 1.89 3.29 2.41 4.92 1.1 6.98-5.6 15.85-8.96 25.5-8.96z" fill="#efedee"/></g></g></g><g fill="#ee878a"><path d="m303.936 341.106-5.357 27.368c-2.086 10.659-11.427 18.348-22.287 18.348h-40.939c-10.861 0-20.201-7.69-22.287-18.348l-5.357-27.368-11.96-70.758h125.1z"/><path d="m183.441 133.656-22.478 20.321c-22.36 20.214-35.118 48.947-35.118 79.089v55.827c0 7.349 5.958 13.307 13.307 13.307h49.425 67.746v-207.99z"/><path d="m373.493 302.201c7.349 0 13.307-5.958 13.307-13.307v-55.827c0-30.142-12.759-58.876-35.118-79.089l-22.478-20.321-51.912-39.447v207.991z"/></g><g><g fill="#ec6e73"><path d="m195.749 270.348 11.96 70.758 2.935 14.998 2.421 12.37c2.086 10.659 11.427 18.348 22.287 18.348h40.939c7.507 0 14.283-3.676 18.444-9.465-.406.022-42.161.054-42.161.054-10.86 0-20.201-7.689-22.287-18.347-.3-1.534.874-2.96 2.437-2.96h68.275l2.935-14.998 16.914-70.758z"/><path d="m256.323 302.201v-207.991l-72.882 39.446-19.062 17.233c-1.354 7.536-2.434 15.132-3.219 22.779-3.312 32.27-1.451 64.705 5.533 96.403l7.078 32.13h14.805z"/><path d="m345.952 270.075c4.725-21.427 7.121-43.431 7.121-65.4 0-18.172-1.608-36.117-4.773-53.755l-19.095-17.263-51.913-39.447v207.991h61.582z"/></g><path d="m289.276 66.236h-41.444l-48.449 21.318-.001-.004c-24.653 55.608-31.465 118.36-18.039 179.294l14.64 66.46c1.01 4.56 5.04 7.8 9.71 7.8h101.26c4.67 0 8.7-3.24 9.71-7.8l14.64-66.46c4.55-20.63 6.77-41.47 6.77-62.17 0-40.443-8.511-80.346-24.819-117.128z" fill="#f8f7f8"/><path d="m260.821 350.915h-8.996c-5.091 0-9.256-4.055-9.391-9.145l-1.412-53.16c-.14-5.284 4.105-9.644 9.391-9.644h11.821c5.286 0 9.531 4.36 9.391 9.644l-1.412 53.16c-.137 5.09-4.301 9.145-9.392 9.145z" fill="#cac5cb"/><g id="XMLID_193_"><g><path d="m260.256 122.818c-10.624-.625-20.801 1.014-30.101 4.475-3.966 1.476-7.9-2.313-6.64-6.353 5.827-18.681 13.573-36.781 23.124-54.014l-47.256 20.628-.001-.003c-24.652 55.608-31.465 118.359-18.039 179.293l14.64 66.46c1.01 4.56 5.04 7.8 9.71 7.8h29.464c-1.647-1.373-2.857-3.274-3.349-5.493l-14.64-66.46c-.008-.037-.016-.074-.024-.111-.907-4.125 3.348-7.542 7.164-5.733 9.563 4.535 20.247 7.076 31.515 7.076 41.316 0 74.817-34.106 73.826-75.642-.91-38.159-31.289-69.68-69.393-71.923z" fill="#efedee"/><path d="m263.103 10.504c-1.82-2-4.3-3-6.78-3s-4.96 1-6.78 3c-12.95 14.28-24.32 29.66-34.02 45.89l8.65 15.58h62.116l10.833-15.58c-9.709-16.23-21.069-31.62-34.019-45.89z" fill="#ee878a"/><path d="m263.103 10.504c-1.82-2-4.3-3-6.78-3s-4.96 1-6.78 3c-12.95 14.28-24.32 29.66-34.02 45.89l2.434 11.983h26.443l8.37-11.983c6.708-10.983 14.165-21.578 22.383-31.684-3.854-4.842-7.86-9.588-12.05-14.206z" fill="#ec6e73"/><path d="m313.263 87.554h-113.88c4.72-10.67 10.11-21.08 16.14-31.16h81.6c6.03 10.08 11.42 20.49 16.14 31.16z" fill="#fbe88c"/></g></g><circle cx="255.823" cy="196.535" fill="#a9e4f9" r="53.848"/><path d="m230.377 196.535c0-24.822 16.818-45.718 39.664-51.951-4.526-1.235-9.302-1.897-14.219-1.897-29.739 0-53.848 24.108-53.848 53.848s24.108 53.848 53.848 53.848c4.917 0 9.687-.661 14.213-1.896-22.845-6.232-39.658-27.129-39.658-51.952z" fill="#81d9f8"/></g><path d="m252.77 56.394h-37.248c-6.03 10.08-11.42 20.49-16.14 31.16h36.875c4.848-10.679 10.36-21.085 16.513-31.16z" fill="#fbe372"/></g><g><path d="m255.823 257.883c33.827 0 61.348-27.521 61.348-61.348 0-15.476-5.787-30.259-16.295-41.627-2.812-3.042-7.558-3.229-10.599-.416-3.042 2.812-3.229 7.557-.417 10.599 7.938 8.587 12.311 19.754 12.311 31.444 0 25.556-20.791 46.348-46.348 46.348s-46.348-20.792-46.348-46.348c0-25.557 20.791-46.348 46.348-46.348 3.369 0 6.772.377 10.113 1.12 4.048.9 8.05-1.649 8.95-5.692.899-4.043-1.649-8.05-5.692-8.95-4.409-.981-8.907-1.479-13.371-1.479-33.827 0-61.348 27.521-61.348 61.348 0 33.829 27.521 61.349 61.348 61.349z"/><path d="m348.479 416.106c-9.276 0-18.393 2.706-26.146 7.694-6.443-9.707-17.461-15.753-29.298-15.753-2.807 0-5.562.326-8.243.973v-15.929c10.587-3.12 18.944-11.916 21.147-23.176l4.232-21.622c6.732-1.286 12.3-6.511 13.812-13.373l5.556-25.219h43.953c11.474 0 20.808-9.334 20.808-20.807v-18.841c0-4.142-3.357-7.5-7.5-7.5s-7.5 3.358-7.5 7.5v18.841c0 3.202-2.605 5.807-5.808 5.807h-40.648l5.783-26.248c8.344-37.871 9.033-76.502 2.638-113.783l5.388 4.871c20.748 18.757 32.647 45.556 32.647 73.526v5.024c0 4.142 3.357 7.5 7.5 7.5s7.5-3.358 7.5-7.5v-5.024c0-32.203-13.7-63.058-37.589-84.653l-20.89-18.886c-11.943-45.56-34.691-88.279-67.167-124.066-3.15-3.471-7.645-5.462-12.331-5.462-4.687 0-9.182 1.991-12.331 5.461-32.477 35.787-55.224 78.506-67.167 124.066l-20.89 18.886c-23.889 21.595-37.589 52.45-37.589 84.653v5.024c0 4.142 3.357 7.5 7.5 7.5s7.5-3.358 7.5-7.5v-5.024c0-27.97 11.899-54.769 32.647-73.526l5.388-4.871c-6.396 37.281-5.706 75.913 2.638 113.783l5.783 26.248h-40.648c-3.202 0-5.808-2.605-5.808-5.807v-18.841c0-4.142-3.357-7.5-7.5-7.5s-7.5 3.358-7.5 7.5v18.841c0 11.473 9.334 20.807 20.808 20.807h43.953l5.556 25.22c1.434 6.503 6.509 11.537 12.767 13.14l4.277 21.854c2.272 11.613 11.088 20.606 22.147 23.454v15.651c-2.681-.647-5.437-.973-8.243-.973-11.836 0-22.853 6.046-29.297 15.751-8.449-5.449-18.424-8.141-28.611-7.631-24.342 1.215-43.981 20.453-45.682 44.747-.949 13.557 3.61 26.474 12.838 36.37 9.101 9.76 21.97 15.357 35.309 15.357 6.732 0 13.262-1.371 19.409-4.073 3.791-1.667 5.514-6.093 3.846-9.885-1.666-3.792-6.088-5.513-9.885-3.847-4.231 1.861-8.729 2.805-13.37 2.805-9.329 0-17.972-3.76-24.338-10.586-6.359-6.82-9.501-15.732-8.846-25.093 1.172-16.729 14.699-29.976 31.467-30.813 8.192-.416 16.181 2.173 22.525 7.268 2.591 2.08 5.925 2.846 9.153 2.096 3.206-.744 5.847-2.881 7.245-5.864 3.304-7.048 10.462-11.602 18.236-11.602 2.841 0 5.586.58 8.156 1.723 3.347 1.49 7.172 1.192 10.232-.795 3.04-1.974 4.854-5.32 4.854-8.949v-20.703h26.939v20.703c0 3.629 1.814 6.975 4.854 8.949 3.062 1.988 6.886 2.284 10.229.797 2.573-1.145 5.318-1.725 8.159-1.725 7.773 0 14.932 4.554 18.236 11.602 1.398 2.982 4.039 5.119 7.244 5.862 3.226.749 6.566-.016 9.158-2.097 5.956-4.78 13.149-7.307 20.805-7.307 9.309 0 17.939 3.746 24.302 10.548 6.356 6.796 9.514 15.683 8.889 25.023-1.072 16.032-13.934 29.276-29.915 30.807-5.793.554-11.391-.336-16.646-2.647-3.791-1.665-8.218.055-9.884 3.847-1.668 3.792.055 8.217 3.847 9.884 6.112 2.688 12.763 4.069 19.468 4.069 1.547 0 3.099-.073 4.646-.222 23.214-2.223 41.895-21.456 43.452-44.737.904-13.528-3.677-26.41-12.9-36.271-9.095-9.723-21.946-15.301-35.256-15.301zm-128.631-352.213h72.95c3.057 5.299 5.933 10.69 8.631 16.159h-90.211c2.696-5.47 5.572-10.86 8.63-16.159zm35.251-48.351c.406-.448.89-.542 1.224-.542s.817.094 1.224.542c9.551 10.524 18.215 21.68 25.964 33.351h-54.375c7.748-11.672 16.413-22.827 25.963-33.351zm-66.433 249.684c-12.695-57.621-6.728-117.095 15.691-170.174h103.93c22.419 53.079 28.386 112.554 15.691 170.174l-14.644 66.466c-.248 1.126-1.228 1.914-2.381 1.914h-29.024l1.19-44.796c.123-4.596-1.576-8.941-4.784-12.235-3.207-3.294-7.506-5.108-12.104-5.108h-11.82c-4.598 0-8.896 1.814-12.104 5.108s-4.907 7.639-4.784 12.235l1.19 44.797h-29.024c-1.153 0-2.133-.787-2.381-1.913zm75.46 23.185-1.412 53.161c-.027 1.034-.859 1.843-1.894 1.843h-8.996c-1.034 0-1.866-.81-1.894-1.844l-1.412-53.161c-.018-.66.282-1.11.536-1.371.255-.261.696-.573 1.357-.573h11.82c.661 0 1.103.312 1.357.573.256.261.556.711.538 1.372zm-43.7 78.623-3.607-18.428h19.65c2.661 5.824 8.506 9.809 15.355 9.809h8.996c6.849 0 12.694-3.985 15.355-9.809h18.65l-3.607 18.428c-1.394 7.121-7.671 12.289-14.927 12.289h-40.939c-7.255 0-13.532-5.168-14.926-12.289z"/><path d="m102.08 429.566c-3.81-1.636-8.216.128-9.85 3.934-3.46 8.061-5.524 16.58-6.137 25.321-.649 9.271.355 18.528 2.986 27.517.958 3.272 3.949 5.396 7.195 5.396.697 0 1.406-.098 2.109-.304 3.976-1.164 6.255-5.33 5.092-9.305-2.13-7.277-2.944-14.766-2.42-22.257.495-7.059 2.162-13.94 4.957-20.452 1.635-3.806-.126-8.216-3.932-9.85z"/><path d="m420.355 433.503c-1.631-3.807-6.038-5.571-9.849-3.938-3.807 1.632-5.57 6.042-3.938 9.849 3.957 9.23 5.698 19.351 5.035 29.267-.303 4.524-1.11 9.045-2.4 13.438-1.167 3.975 1.108 8.143 5.083 9.31.705.208 1.417.306 2.116.306 3.243 0 6.233-2.12 7.193-5.388 1.598-5.442 2.599-11.048 2.975-16.665.82-12.271-1.329-24.781-6.215-36.179z"/><path d="m207.746 450.73c-4.143 0-7.5 3.358-7.5 7.5s3.357 7.5 7.5 7.5c13.656 0 24.766 11.11 24.766 24.766 0 4.142 3.357 7.5 7.5 7.5s7.5-3.358 7.5-7.5c-.001-21.927-17.84-39.766-39.766-39.766z"/><path d="m304.9 450.73c-21.927 0-39.766 17.839-39.766 39.766 0 4.142 3.357 7.5 7.5 7.5s7.5-3.358 7.5-7.5c0-13.656 11.109-24.766 24.766-24.766 4.143 0 7.5-3.358 7.5-7.5s-3.358-7.5-7.5-7.5z"/></g></g></svg>